<svg version="1" xmlns="http://www.w3.org/2000/svg" width="1282.667" height="1282.667" viewBox="0 0 962.000000 962.000000"><path d="M461.5 7c-10.4 3.7-35.4 12.7-55.5 19.8-20.1 7.2-68.9 24.6-108.5 38.7-39.6 14.1-82.1 29.3-94.5 33.7-12.4 4.3-25 8.9-28 10-3 1.1-13.1 4.7-22.5 7.9-9.3 3.3-17.9 6.3-19 6.8-1.1.5-8.3 3.2-16 5.9-7.7 2.7-29.7 10.5-48.8 17.3l-34.8 12.4.6 6c.4 3.3.8 7.1 1 8.5.2 1.4.6 4.7.9 7.5.7 6.1 1.6 13.8 2.1 18.5.3 1.9.7 5.7 1 8.5.3 2.7.7 6.6 1 8.5.2 1.9.7 5.7.9 8.5.5 4.4 1.8 15.9 3.1 26.7.6 5 1.2 10 2 17.3.4 3.3.8 7.1 1.1 8.4.2 1.4.6 5.2.9 8.5.3 3.4.8 7.2 1 8.6.2 1.4.7 5.4 1.1 9 .9 8.5 1.1 10.7 1.7 15.5.3 2.2.9 6.8 1.2 10.3.4 3.5.8 7.3 1 8.5.3 1.1.7 4.8 1 8.1.7 7.2 1 10.1 2.4 22.1 1.2 9.9 1.8 15.1 2.6 22.2.3 2.7.8 6.4 1 8.3.3 1.9.7 6.2 1.1 9.5.3 3.3.7 7.1.9 8.5.2 1.4.7 5.2 1 8.5.4 3.3.8 7.1 1 8.5.2 1.4.6 5 1 8 .8 7.6 1.7 15 2.1 18 .1 1.4.6 5.2.9 8.5.3 3.3.8 7.3 1 9 .2 1.6.7 5.5 1 8.5.3 3 1 8.9 1.5 13s1.2 10 1.5 13c.3 3 .8 7.3 1.1 9.5 1 8.2 1.4 11.1 1.9 16 .3 2.7.8 6.9 1 9.2.3 2.4.7 6.4 1 9 .3 2.7.7 5.9 1 7.3.2 1.4.7 5.4 1 9 .3 3.6.7 7.4.9 8.5.2 1.1.7 5.4 1.1 9.5.4 4.1.8 8.2 1 9 .1.8.6 4.4 1 8 .3 3.6.8 7.6 1 9 .2 1.4.6 5 1 8 .3 3 .8 7.1 1 9 .3 1.9.7 6 1 9 .4 3 .8 6.6 1 8 .2 1.4.6 5.6 1 9.3.3 3.7.8 7.8 1 8.9.3 1.2.7 4.6 1 7.7.2 3.1.7 7.2 1 9.1.2 1.9.7 6 1 9 .3 3 .8 7.1 1 9 .2 1.9.7 5.7 1 8.5.3 2.7.7 6.6 1 8.5.2 1.9 1.2 9.8 2.1 17.5.9 7.7 1.7 14.1 1.7 14.2.6.5 41.9 23.3 42.3 23.3.3 0 1.8.8 3.2 1.8 1.5 1.1 5.6 3.5 9.2 5.4 6.3 3.3 68.7 37.8 115 63.6 23.7 13.1 30.9 17.1 37.5 20.7 2.2 1.2 8.1 4.5 13 7.2 10.7 6 89.6 49.7 97.5 54 12.6 6.8 49.6 27.4 51 28.3.8.5 3.6 2 6.2 3.4l4.7 2.6 12.3-6.9c6.8-3.7 35.7-19.8 64.3-35.6 28.6-15.9 61.9-34.3 74-41 12.1-6.7 24-13.3 26.5-14.7 2.5-1.4 7-3.9 10-5.5 3-1.7 11.4-6.3 18.5-10.3 7.2-4 15.5-8.6 18.5-10.3 17-9.3 40.2-22.1 47-25.9 12-6.7 62.2-34.5 67-37.1 3-1.7 8.4-4.7 12-6.7 3.6-2 10.1-5.7 14.5-8 12.4-6.7 15.4-8.8 15.3-10.7-.1-1 .2-4.1.5-6.8.4-2.8 1.1-9.1 1.7-14 .6-5 1.2-10.6 1.5-12.5.7-6 1.6-14 2.9-26 .4-3 .9-7.1 1.1-9 .8-5.8 1.4-11 2.5-21.5 1.1-10.4 1.6-14.2 2.4-21 .3-2.2 1.2-10.3 2.1-18 2.3-20.5 2.5-22.6 3-26.5.3-1.9.7-5.3.9-7.5 1.3-11.5 1.8-15.2 2.1-17.5.2-1.4.6-5.7 1-9.5.4-3.9.9-7.8 1-8.7.2-.9.6-4.8.9-8.5.4-3.7.8-7.9 1.1-9.3.2-1.4.7-5 1-8 .3-3 .8-6.6 1-8 .2-1.4.7-5.2 1-8.5.3-3.3.7-7.6 1-9.5.2-1.9.7-5.6 1-8.3.3-2.6.7-6.6 1-9 .3-2.3 2.1-18.2 4.1-35.2 3.9-34.3 4.2-37.5 4.9-42.5.4-3.7 1.2-10.6 2-18 .3-2.5.7-6.1 1-8 .2-1.9.7-6 1-9 .4-3 .8-6.6 1-8 .2-1.4.6-5.7 1-9.5.4-3.9.8-7.7 1-8.5.2-.8.6-4.4.9-8 .4-3.6.8-7.5 1-8.5.2-1.1.7-5.2 1-9 .4-3.9.9-8.1 1.1-9.5.2-1.4.6-5.2 1-8.5s.8-7.4 1-9c.4-3.1 1.1-9.1 2-17.3.3-2.6.8-6.3 1-8.2.3-1.9.7-6 1-9 .3-3 1-8.9 1.5-13s1.2-9.8 1.5-12.5c.5-4.7 1.1-9.8 2-17 .2-1.7.7-6.2 1-10 .4-3.9.8-7.7 1-8.5.2-.8.7-4.7 1.1-8.5.3-3.9.8-7.8 1-8.8.2-1 .6-5.5 1-10.1l.7-8.3-4.4-1.6c-2.4-.8-10.9-3.8-18.9-6.7-8-2.9-15.6-5.6-17-6-1.4-.5-6.8-2.4-12-4.3s-17.4-6.2-27-9.7c-9.6-3.4-23.1-8.2-30-10.7-6.9-2.5-18.6-6.7-26-9.3-7.4-2.6-36.2-12.9-64-22.8-27.8-9.9-54.3-19.4-59-21-4.7-1.7-14.3-5.1-21.5-7.7-21-7.5-21.7-7.8-52-18.4-15.9-5.7-29.9-10.7-31-11.2-1.1-.4-8.3-3.1-16-5.8-7.7-2.7-26.1-9.2-40.8-14.5-14.8-5.3-27.4-9.6-28-9.5-.7 0-9.7 3.1-20.2 6.9z"/></svg>